<?xml version="1.0" encoding="utf-8"?>
<!-- Generator: Adobe Illustrator 21.1.0, SVG Export Plug-In . SVG Version: 6.00 Build 0)  -->
<svg version="1.1" id="_x32_" xmlns="http://www.w3.org/2000/svg" xmlns:xlink="http://www.w3.org/1999/xlink" x="0px" y="0px"
	 viewBox="0 0 128 135" style="enable-background:new 0 0 128 135;" xml:space="preserve">
<style type="text/css">
	.st0{fill:#ffe4f9;}
	.st1{fill:#E9D4FD;}
	.st2{fill:#F0BCFA;}
	.st3{fill:#F9BCFA;}
</style>
<g>
	<rect y="0" class="st0" width="128" height="135"/>
	<path class="st1" d="M15.03,66.752c-2.63,2.625-12.777,6.75-12.777,12c0,2.25,0,3.75,0,3.75H15.03h12.777c0,0,0-1.5,0-3.75
		C27.807,73.502,17.661,69.377,15.03,66.752z"/>
	<path class="st1" d="M15.03,18c2.631-2.625,12.777-6.75,12.777-12c0-2.25,0-3.75,0-3.75H15.03H2.253c0,0,0,1.5,0,3.75
		C2.253,11.25,12.4,15.375,15.03,18z"/>
	<path class="st1" d="M79.031,66.752c-2.631,2.625-12.777,6.75-12.777,12c0,2.25,0,3.75,0,3.75h12.777h12.777c0,0,0-1.5,0-3.75
		C91.808,73.502,81.661,69.377,79.031,66.752z"/>
	<path class="st1" d="M79.031,18c2.631-2.625,12.777-6.75,12.777-12c0-2.25,0-3.75,0-3.75H79.031H66.254c0,0,0,1.5,0,3.75
		C66.254,11.25,76.4,15.375,79.031,18z"/>
	<path class="st2" d="M55.99,101.253l3.006,2.5V92.253c0.002-7.505-1.373-14.106-3.625-19.889
		c-3.377-8.677-8.71-15.496-14.264-20.876c-5.554-5.38-11.343-9.342-15.656-12.299c-1.045-0.717-2.029-1.39-2.866-1.985
		c-1-0.713-2.059-1.44-3.174-2.205c-5.291-3.62-11.43-7.847-16.203-13.512C2.047,20.114,0.969,18.653,0,17.096v5.202
		c2.46,3.127,5.283,5.815,8.159,8.184c3.249,2.675,6.573,4.952,9.549,6.992c1.117,0.765,2.164,1.482,3.131,2.17
		c0.869,0.62,1.864,1.302,2.911,2.02c2.873,1.967,6.325,4.335,9.892,7.23c5.348,4.34,10.942,9.859,15.186,16.939
		c2.122,3.54,3.91,7.47,5.17,11.852c1.26,4.38,1.992,9.214,1.992,14.569V101.253z"/>
	<path class="st2" d="M45.218,101.253h6.513v-8.999c0.002-7.19-1.468-13.494-3.85-18.944c-1.784-4.09-4.073-7.697-6.606-10.882
		c-3.803-4.777-8.149-8.607-12.237-11.754c-2.044-1.572-4.023-2.972-5.839-4.23c-1.814-1.252-3.465-2.365-4.832-3.34
		c-1.31-0.932-2.766-1.915-4.319-2.985c-2.718-1.87-5.732-3.997-8.72-6.485C3.515,32.127,1.713,30.488,0,28.703v8.939
		c1.313,1.135,2.625,2.195,3.913,3.185c2.042,1.572,4.023,2.975,5.839,4.23c1.814,1.255,3.464,2.365,4.832,3.34
		c1.31,0.933,2.766,1.917,4.319,2.987c2.715,1.867,5.732,3.997,8.72,6.484c2.242,1.865,4.466,3.93,6.536,6.227
		c3.106,3.447,5.864,7.407,7.848,12.029c1.981,4.625,3.209,9.914,3.211,16.129V101.253z"/>
	<path class="st2" d="M8.217,51.286c-0.606-0.415-1.237-0.847-1.889-1.297c-0.248-0.172-0.511-0.355-0.782-0.545
		C3.748,50.776,1.874,52.241,0,53.861V62.8c0.624-0.652,1.263-1.285,1.909-1.897c2.983-2.837,6.132-5.267,9.088-7.384
		c0.073-0.053,0.143-0.103,0.215-0.152c-0.04-0.03-0.08-0.057-0.12-0.085C10.256,52.684,9.264,52.006,8.217,51.286z"/>
	<path class="st2" d="M119.991,101.253l3.006,2.5V92.253c0-7.505-1.373-14.106-3.625-19.889c-3.377-8.677-8.71-15.496-14.264-20.876
		c-5.556-5.38-11.343-9.342-15.657-12.299c-1.047-0.717-2.032-1.39-2.866-1.985c-1-0.713-2.059-1.44-3.176-2.205
		c-5.288-3.62-11.428-7.847-16.2-13.512c-2.387-2.832-4.436-6.017-5.889-9.674C59.943,8.347,59.091,4.455,59.004,0h-3.006
		c0.085,4.827,1.012,9.114,2.528,12.922c1.195,3,2.751,5.699,4.532,8.142c2.675,3.662,5.852,6.742,9.103,9.419
		c3.249,2.675,6.573,4.952,9.549,6.992c1.115,0.765,2.162,1.482,3.131,2.17c0.869,0.62,1.864,1.302,2.911,2.02
		c2.873,1.967,6.325,4.335,9.89,7.23c5.351,4.34,10.942,9.859,15.186,16.939c2.124,3.54,3.913,7.47,5.173,11.852
		c1.257,4.38,1.991,9.214,1.991,14.569V101.253z"/>
	<path class="st2" d="M111.882,73.31c-1.784-4.09-4.073-7.697-6.608-10.882c-3.8-4.777-8.146-8.607-12.235-11.754
		c-2.044-1.573-4.026-2.972-5.839-4.23c-1.814-1.252-3.464-2.365-4.832-3.34c-1.313-0.933-2.768-1.915-4.321-2.985
		c-2.715-1.87-5.729-3.997-8.717-6.484c-2.242-1.865-4.466-3.93-6.538-6.227c-3.106-3.447-5.862-7.409-7.846-12.031
		C53.042,10.939,51.834,5.89,51.739,0h-6.528c-0.063,3.947-0.626,7.517-1.563,10.779c-1.495,5.197-3.935,9.627-6.876,13.484
		c-2.7,3.545-5.829,6.59-8.998,9.239c0.351,0.24,0.711,0.49,1.082,0.742l0.055,0.038c1.33,0.912,2.813,1.927,4.389,3.055
		c1.746-1.525,3.49-3.185,5.17-5c3.602-3.892,6.926-8.504,9.346-13.992c0.228-0.517,0.448-1.042,0.661-1.577
		c0.188,0.483,0.386,0.957,0.591,1.425c1.786,4.087,4.073,7.694,6.608,10.879c3.8,4.777,8.149,8.609,12.235,11.754
		c2.044,1.572,4.026,2.975,5.839,4.23c1.816,1.255,3.465,2.365,4.835,3.34c1.31,0.932,2.766,1.917,4.319,2.987
		c2.715,1.867,5.729,3.997,8.718,6.485c2.242,1.865,4.467,3.93,6.538,6.227c3.106,3.447,5.862,7.407,7.846,12.029
		c1.984,4.625,3.211,9.914,3.214,16.129v9h6.513v-9C115.735,85.064,114.265,78.759,111.882,73.31z"/>
	<line class="st2" x1="51.727" y1="0" x2="45.223" y2="0"/>
	<path class="st2" d="M72.217,51.287c-0.605-0.415-1.237-0.848-1.89-1.299c-0.248-0.171-0.511-0.354-0.782-0.543
		c-4.221,3.125-8.847,6.977-12.94,11.854c1.235,2.063,2.332,4.173,3.291,6.323c1.84-2.464,3.882-4.696,6.012-6.72
		c2.985-2.836,6.133-5.267,9.09-7.384c0.072-0.052,0.143-0.101,0.215-0.153c-0.04-0.028-0.08-0.056-0.12-0.084
		C74.255,52.684,73.265,52.005,72.217,51.287z"/>
	<path class="st2" d="M125.32,11.814C123.944,8.347,123.09,4.455,123.005,0h-3.006c0.085,4.827,1.012,9.114,2.528,12.922
		c1.192,3,2.751,5.699,4.532,8.142c0.308,0.42,0.621,0.835,0.942,1.24v-5.212C126.97,15.446,126.066,13.691,125.32,11.814z"/>
	<path class="st2" d="M126.792,27.408c-3.106-3.447-5.862-7.409-7.848-12.031c-1.901-4.437-3.109-9.487-3.206-15.376h-0.01h-6.503
		h-0.013c-0.063,3.947-0.629,7.517-1.566,10.779c-1.493,5.197-3.933,9.627-6.874,13.484c-2.703,3.545-5.829,6.59-8.998,9.239
		c0.351,0.24,0.711,0.49,1.082,0.742l0.055,0.038c1.33,0.912,2.811,1.927,4.389,3.055c1.746-1.525,3.487-3.185,5.168-5
		c3.602-3.892,6.929-8.504,9.346-13.992c0.228-0.517,0.451-1.045,0.661-1.58c0.19,0.482,0.388,0.958,0.594,1.427
		c1.784,4.087,4.073,7.694,6.606,10.879c2.605,3.272,5.466,6.102,8.324,8.569v-8.939C127.592,28.281,127.188,27.848,126.792,27.408z
		"/>
	<path class="st2" d="M120.605,61.298c1.235,2.065,2.332,4.172,3.292,6.324c1.283-1.717,2.663-3.322,4.103-4.819v-8.942
		C125.477,56.038,122.952,58.501,120.605,61.298z"/>
	<path class="st2" d="M58.996,122.751l-3.006,2.5v8.999c0,0.252,0.003,0.502,0.008,0.75h3.006c-0.005-0.247-0.007-0.497-0.007-0.75
		V122.751z"/>
	<path class="st2" d="M51.732,125.251h-6.513v9.017c0,0.245-0.002,0.49-0.008,0.732h0.013h6.503h0.013
		c-0.005-0.242-0.007-0.488-0.007-0.732V125.251z"/>
	<path class="st2" d="M122.997,122.751l-3.006,2.5v8.999c0,0.252,0.003,0.502,0.007,0.75h3.006c-0.005-0.247-0.008-0.497-0.008-0.75
		V122.751z"/>
	<path class="st2" d="M115.733,125.251h-6.513v9.017c0,0.245-0.003,0.49-0.007,0.732h0.013h6.503h0.01
		c-0.003-0.242-0.005-0.488-0.005-0.732V125.251z"/>
	<ellipse class="st2" cx="72.024" cy="113.251" rx="2.382" ry="2.377"/>
	<ellipse class="st2" cx="81.042" cy="113.251" rx="2.382" ry="2.377"/>
	<ellipse class="st2" cx="90.06" cy="113.251" rx="2.382" ry="2.377"/>
	<path class="st3" d="M124.5,113.251h-3.257c-0.001,1.217-0.245,2.359-0.688,3.405c-0.663,1.566-1.779,2.908-3.18,3.852
		c-1.403,0.944-3.073,1.491-4.9,1.492c-1.22-0.001-2.365-0.245-3.412-0.686c-1.569-0.662-2.914-1.775-3.86-3.174
		c-0.946-1.4-1.494-3.066-1.495-4.889c0-1.217,0.245-2.36,0.688-3.405c0.663-1.566,1.779-2.909,3.18-3.852
		c1.403-0.944,3.073-1.491,4.9-1.492c1.219,0.001,2.365,0.245,3.412,0.686c1.569,0.661,2.915,1.775,3.861,3.173
		c0.946,1.4,1.494,3.066,1.495,4.89H124.5h3.257c0-2.097-0.428-4.11-1.202-5.937c-1.162-2.741-3.096-5.063-5.533-6.706
		c-2.435-1.644-5.392-2.607-8.546-2.606c-2.101-0.001-4.119,0.427-5.949,1.2c-2.747,1.16-5.073,3.089-6.72,5.521
		c-1.647,2.43-2.613,5.381-2.612,8.528c0,2.096,0.428,4.11,1.202,5.936c1.162,2.741,3.096,5.063,5.533,6.706
		c2.435,1.644,5.392,2.607,8.546,2.606c2.101,0,4.119-0.427,5.949-1.2c2.746-1.16,5.073-3.089,6.72-5.521
		c1.647-2.43,2.613-5.381,2.612-8.528H124.5z"/>
	<path class="st3" d="M36.451,113.251h-3.257c0,2.096,0.428,4.11,1.202,5.936c1.162,2.741,3.096,5.063,5.533,6.706
		c2.435,1.644,5.392,2.607,8.546,2.606c2.101,0,4.119-0.427,5.949-1.2c2.747-1.16,5.073-3.089,6.72-5.521
		c1.647-2.43,2.613-5.381,2.612-8.528c0-2.097-0.428-4.111-1.202-5.937c-1.162-2.741-3.096-5.063-5.533-6.706
		c-2.435-1.644-5.392-2.607-8.546-2.606c-2.101-0.001-4.119,0.427-5.949,1.2c-2.746,1.16-5.073,3.089-6.72,5.521
		c-1.647,2.43-2.613,5.381-2.611,8.528H36.451h3.257c0-1.217,0.245-2.36,0.688-3.405c0.663-1.566,1.779-2.908,3.18-3.852
		c1.403-0.944,3.073-1.491,4.9-1.492c1.22,0.001,2.365,0.245,3.412,0.686c1.569,0.661,2.914,1.775,3.86,3.173
		c0.946,1.4,1.494,3.066,1.496,4.89c0,1.217-0.245,2.359-0.688,3.405c-0.663,1.566-1.779,2.908-3.18,3.852
		c-1.403,0.944-3.073,1.491-4.9,1.492c-1.22-0.001-2.365-0.245-3.412-0.686c-1.569-0.662-2.915-1.775-3.86-3.174
		c-0.946-1.4-1.494-3.066-1.495-4.889H36.451z"/>
</g>
</svg>
